<svg id="visual" viewBox="0 0 900 600" width="900" height="600" xmlns="http://www.w3.org/2000/svg" xmlns:xlink="http://www.w3.org/1999/xlink" version="1.1"><path d="M0 363L21.5 362.8C43 362.7 86 362.3 128.8 376.2C171.7 390 214.3 418 257.2 430.2C300 442.3 343 438.7 385.8 433.3C428.7 428 471.3 421 514.2 416.8C557 412.7 600 411.3 642.8 412.2C685.7 413 728.3 416 771.2 408.8C814 401.7 857 384.3 878.5 375.7L900 367L900 601L878.5 601C857 601 814 601 771.2 601C728.3 601 685.7 601 642.8 601C600 601 557 601 514.2 601C471.3 601 428.7 601 385.8 601C343 601 300 601 257.2 601C214.3 601 171.7 601 128.8 601C86 601 43 601 21.5 601L0 601Z" fill="#b5e8d5"></path><path d="M0 423L21.5 426.7C43 430.3 86 437.7 128.8 445.2C171.7 452.7 214.3 460.3 257.2 464.3C300 468.3 343 468.7 385.8 456.8C428.7 445 471.3 421 514.2 413.7C557 406.3 600 415.7 642.8 429.3C685.7 443 728.3 461 771.2 459.5C814 458 857 437 878.5 426.5L900 416L900 601L878.5 601C857 601 814 601 771.2 601C728.3 601 685.7 601 642.8 601C600 601 557 601 514.2 601C471.3 601 428.7 601 385.8 601C343 601 300 601 257.2 601C214.3 601 171.7 601 128.8 601C86 601 43 601 21.5 601L0 601Z" fill="#9be3dd"></path><path d="M0 495L21.5 486.2C43 477.3 86 459.7 128.8 455.8C171.7 452 214.3 462 257.2 468.2C300 474.3 343 476.7 385.8 482.2C428.7 487.7 471.3 496.3 514.2 494.3C557 492.3 600 479.7 642.8 469.7C685.7 459.7 728.3 452.3 771.2 448.3C814 444.3 857 443.7 878.5 443.3L900 443L900 601L878.5 601C857 601 814 601 771.2 601C728.3 601 685.7 601 642.8 601C600 601 557 601 514.2 601C471.3 601 428.7 601 385.8 601C343 601 300 601 257.2 601C214.3 601 171.7 601 128.8 601C86 601 43 601 21.5 601L0 601Z" fill="#84dde9"></path><path d="M0 528L21.5 523.2C43 518.3 86 508.7 128.8 509.5C171.7 510.3 214.3 521.7 257.2 526.8C300 532 343 531 385.8 526.7C428.7 522.3 471.3 514.7 514.2 514C557 513.3 600 519.7 642.8 524C685.7 528.3 728.3 530.7 771.2 526.8C814 523 857 513 878.5 508L900 503L900 601L878.5 601C857 601 814 601 771.2 601C728.3 601 685.7 601 642.8 601C600 601 557 601 514.2 601C471.3 601 428.7 601 385.8 601C343 601 300 601 257.2 601C214.3 601 171.7 601 128.8 601C86 601 43 601 21.5 601L0 601Z" fill="#77d5f6"></path><path d="M0 538L21.5 542.7C43 547.3 86 556.7 128.8 557.2C171.7 557.7 214.3 549.3 257.2 545.5C300 541.7 343 542.3 385.8 540.3C428.7 538.3 471.3 533.7 514.2 538.2C557 542.7 600 556.3 642.8 557.3C685.7 558.3 728.3 546.7 771.2 540.8C814 535 857 535 878.5 535L900 535L900 601L878.5 601C857 601 814 601 771.2 601C728.3 601 685.7 601 642.8 601C600 601 557 601 514.2 601C471.3 601 428.7 601 385.8 601C343 601 300 601 257.2 601C214.3 601 171.7 601 128.8 601C86 601 43 601 21.5 601L0 601Z" fill="#7bcaff"></path></svg>